<mxfile host="app.diagrams.net" modified="2022-03-24T14:13:57.905Z" agent="5.0 (Macintosh; Intel Mac OS X 10_15_7) AppleWebKit/537.36 (KHTML, like Gecko) Chrome/99.0.4844.83 Safari/537.36" etag="bR5Swfk_OefvQmkXqFIQ" version="17.2.1" type="github">
  <diagram id="00MtoVXjWd5d-frnvjrM" name="Page-1">
    <mxGraphModel dx="2253" dy="794" grid="1" gridSize="10" guides="1" tooltips="1" connect="1" arrows="1" fold="1" page="1" pageScale="1" pageWidth="827" pageHeight="1169" math="0" shadow="0">
      <root>
        <mxCell id="0" />
        <mxCell id="1" parent="0" />
        <mxCell id="vpJ0kvzyL-LAIBEurBCN-57" value="" style="whiteSpace=wrap;html=1;aspect=fixed;" vertex="1" parent="1">
          <mxGeometry x="49" y="10" width="610" height="610" as="geometry" />
        </mxCell>
        <mxCell id="vpJ0kvzyL-LAIBEurBCN-18" style="edgeStyle=orthogonalEdgeStyle;rounded=0;orthogonalLoop=1;jettySize=auto;html=1;entryX=1;entryY=0.5;entryDx=0;entryDy=0;" edge="1" parent="1" source="vpJ0kvzyL-LAIBEurBCN-10" target="vpJ0kvzyL-LAIBEurBCN-15">
          <mxGeometry relative="1" as="geometry" />
        </mxCell>
        <mxCell id="vpJ0kvzyL-LAIBEurBCN-19" value="注册服务" style="edgeLabel;html=1;align=center;verticalAlign=middle;resizable=0;points=[];" vertex="1" connectable="0" parent="vpJ0kvzyL-LAIBEurBCN-18">
          <mxGeometry x="-0.0312" y="1" relative="1" as="geometry">
            <mxPoint as="offset" />
          </mxGeometry>
        </mxCell>
        <mxCell id="vpJ0kvzyL-LAIBEurBCN-10" value="" style="rounded=0;whiteSpace=wrap;html=1;" vertex="1" parent="1">
          <mxGeometry x="490" y="150" width="156" height="90" as="geometry" />
        </mxCell>
        <mxCell id="vpJ0kvzyL-LAIBEurBCN-16" style="edgeStyle=orthogonalEdgeStyle;rounded=0;orthogonalLoop=1;jettySize=auto;html=1;entryX=0;entryY=0.5;entryDx=0;entryDy=0;" edge="1" parent="1" source="vpJ0kvzyL-LAIBEurBCN-9" target="vpJ0kvzyL-LAIBEurBCN-15">
          <mxGeometry relative="1" as="geometry" />
        </mxCell>
        <mxCell id="vpJ0kvzyL-LAIBEurBCN-17" value="发现服务" style="edgeLabel;html=1;align=center;verticalAlign=middle;resizable=0;points=[];" vertex="1" connectable="0" parent="vpJ0kvzyL-LAIBEurBCN-16">
          <mxGeometry x="-0.1515" relative="1" as="geometry">
            <mxPoint as="offset" />
          </mxGeometry>
        </mxCell>
        <mxCell id="vpJ0kvzyL-LAIBEurBCN-9" value="" style="rounded=0;whiteSpace=wrap;html=1;" vertex="1" parent="1">
          <mxGeometry x="270" y="150" width="156" height="90" as="geometry" />
        </mxCell>
        <mxCell id="vpJ0kvzyL-LAIBEurBCN-13" style="edgeStyle=orthogonalEdgeStyle;rounded=0;orthogonalLoop=1;jettySize=auto;html=1;exitX=1;exitY=0.5;exitDx=0;exitDy=0;entryX=0;entryY=0.5;entryDx=0;entryDy=0;" edge="1" parent="1" source="vpJ0kvzyL-LAIBEurBCN-3" target="vpJ0kvzyL-LAIBEurBCN-6">
          <mxGeometry relative="1" as="geometry" />
        </mxCell>
        <mxCell id="vpJ0kvzyL-LAIBEurBCN-3" value="业务调用-&amp;gt;熔断降级-&amp;gt;GetWay-&amp;gt;服务RPC" style="rounded=1;whiteSpace=wrap;html=1;" vertex="1" parent="1">
          <mxGeometry x="294" y="170" width="120" height="60" as="geometry" />
        </mxCell>
        <mxCell id="vpJ0kvzyL-LAIBEurBCN-6" value="服务RPC-&amp;gt;GetWay-&amp;gt;熔断降级-&amp;gt;业务调用" style="rounded=1;whiteSpace=wrap;html=1;" vertex="1" parent="1">
          <mxGeometry x="500" y="170" width="120" height="60" as="geometry" />
        </mxCell>
        <mxCell id="vpJ0kvzyL-LAIBEurBCN-7" value="服务A" style="text;html=1;align=center;verticalAlign=middle;resizable=0;points=[];autosize=1;strokeColor=none;fillColor=none;" vertex="1" parent="1">
          <mxGeometry x="295" y="150" width="50" height="20" as="geometry" />
        </mxCell>
        <mxCell id="vpJ0kvzyL-LAIBEurBCN-8" value="服务B" style="text;html=1;align=center;verticalAlign=middle;resizable=0;points=[];autosize=1;strokeColor=none;fillColor=none;" vertex="1" parent="1">
          <mxGeometry x="485" y="150" width="50" height="20" as="geometry" />
        </mxCell>
        <mxCell id="vpJ0kvzyL-LAIBEurBCN-14" value="负载均衡" style="text;html=1;align=center;verticalAlign=middle;resizable=0;points=[];autosize=1;strokeColor=none;fillColor=none;" vertex="1" parent="1">
          <mxGeometry x="430" y="180" width="60" height="20" as="geometry" />
        </mxCell>
        <mxCell id="vpJ0kvzyL-LAIBEurBCN-42" style="edgeStyle=orthogonalEdgeStyle;rounded=0;orthogonalLoop=1;jettySize=auto;html=1;exitX=1;exitY=0.25;exitDx=0;exitDy=0;entryX=-0.036;entryY=0.046;entryDx=0;entryDy=0;entryPerimeter=0;" edge="1" parent="1" source="vpJ0kvzyL-LAIBEurBCN-15" target="vpJ0kvzyL-LAIBEurBCN-37">
          <mxGeometry relative="1" as="geometry" />
        </mxCell>
        <mxCell id="vpJ0kvzyL-LAIBEurBCN-43" value="获取服务" style="edgeLabel;html=1;align=center;verticalAlign=middle;resizable=0;points=[];" vertex="1" connectable="0" parent="vpJ0kvzyL-LAIBEurBCN-42">
          <mxGeometry x="-0.0935" relative="1" as="geometry">
            <mxPoint as="offset" />
          </mxGeometry>
        </mxCell>
        <mxCell id="vpJ0kvzyL-LAIBEurBCN-15" value="服务注册中心" style="rounded=0;whiteSpace=wrap;html=1;" vertex="1" parent="1">
          <mxGeometry x="400" y="40" width="120" height="60" as="geometry" />
        </mxCell>
        <mxCell id="vpJ0kvzyL-LAIBEurBCN-22" style="edgeStyle=orthogonalEdgeStyle;rounded=0;orthogonalLoop=1;jettySize=auto;html=1;" edge="1" parent="1" source="vpJ0kvzyL-LAIBEurBCN-21" target="vpJ0kvzyL-LAIBEurBCN-23">
          <mxGeometry relative="1" as="geometry">
            <mxPoint x="425" y="430" as="targetPoint" />
          </mxGeometry>
        </mxCell>
        <mxCell id="vpJ0kvzyL-LAIBEurBCN-21" value="消息中间件" style="rounded=0;whiteSpace=wrap;html=1;" vertex="1" parent="1">
          <mxGeometry x="294" y="370" width="120" height="60" as="geometry" />
        </mxCell>
        <mxCell id="vpJ0kvzyL-LAIBEurBCN-23" value="追踪平台" style="rounded=0;whiteSpace=wrap;html=1;" vertex="1" parent="1">
          <mxGeometry x="294" y="470" width="120" height="60" as="geometry" />
        </mxCell>
        <mxCell id="vpJ0kvzyL-LAIBEurBCN-26" value="事务消息代理" style="rounded=0;whiteSpace=wrap;html=1;" vertex="1" parent="1">
          <mxGeometry x="508" y="340" width="120" height="60" as="geometry" />
        </mxCell>
        <mxCell id="vpJ0kvzyL-LAIBEurBCN-29" value="" style="endArrow=none;dashed=1;html=1;rounded=0;exitX=0.425;exitY=0;exitDx=0;exitDy=0;exitPerimeter=0;" edge="1" parent="1" source="vpJ0kvzyL-LAIBEurBCN-21" target="vpJ0kvzyL-LAIBEurBCN-3">
          <mxGeometry width="50" height="50" relative="1" as="geometry">
            <mxPoint x="480" y="320" as="sourcePoint" />
            <mxPoint x="530" y="270" as="targetPoint" />
          </mxGeometry>
        </mxCell>
        <mxCell id="vpJ0kvzyL-LAIBEurBCN-31" value="" style="endArrow=none;dashed=1;html=1;rounded=0;entryX=0.5;entryY=1;entryDx=0;entryDy=0;exitX=0.5;exitY=0;exitDx=0;exitDy=0;" edge="1" parent="1" source="vpJ0kvzyL-LAIBEurBCN-21" target="vpJ0kvzyL-LAIBEurBCN-6">
          <mxGeometry width="50" height="50" relative="1" as="geometry">
            <mxPoint x="480" y="320" as="sourcePoint" />
            <mxPoint x="530" y="270" as="targetPoint" />
          </mxGeometry>
        </mxCell>
        <mxCell id="vpJ0kvzyL-LAIBEurBCN-33" value="" style="endArrow=none;dashed=1;html=1;rounded=0;exitX=0.75;exitY=1;exitDx=0;exitDy=0;entryX=0.25;entryY=0;entryDx=0;entryDy=0;" edge="1" parent="1" source="vpJ0kvzyL-LAIBEurBCN-9" target="vpJ0kvzyL-LAIBEurBCN-26">
          <mxGeometry width="50" height="50" relative="1" as="geometry">
            <mxPoint x="480" y="320" as="sourcePoint" />
            <mxPoint x="530" y="270" as="targetPoint" />
          </mxGeometry>
        </mxCell>
        <mxCell id="vpJ0kvzyL-LAIBEurBCN-35" value="发生事务消息/查询状态" style="edgeLabel;html=1;align=center;verticalAlign=middle;resizable=0;points=[];" vertex="1" connectable="0" parent="vpJ0kvzyL-LAIBEurBCN-33">
          <mxGeometry x="0.3873" y="-3" relative="1" as="geometry">
            <mxPoint as="offset" />
          </mxGeometry>
        </mxCell>
        <mxCell id="vpJ0kvzyL-LAIBEurBCN-34" value="" style="endArrow=none;dashed=1;html=1;rounded=0;entryX=0.545;entryY=1.022;entryDx=0;entryDy=0;entryPerimeter=0;exitX=0.433;exitY=0;exitDx=0;exitDy=0;exitPerimeter=0;" edge="1" parent="1" source="vpJ0kvzyL-LAIBEurBCN-26" target="vpJ0kvzyL-LAIBEurBCN-10">
          <mxGeometry width="50" height="50" relative="1" as="geometry">
            <mxPoint x="560" y="330" as="sourcePoint" />
            <mxPoint x="530" y="270" as="targetPoint" />
          </mxGeometry>
        </mxCell>
        <mxCell id="vpJ0kvzyL-LAIBEurBCN-36" value="消费" style="edgeLabel;html=1;align=center;verticalAlign=middle;resizable=0;points=[];" vertex="1" connectable="0" parent="vpJ0kvzyL-LAIBEurBCN-34">
          <mxGeometry x="0.2636" relative="1" as="geometry">
            <mxPoint x="-1" as="offset" />
          </mxGeometry>
        </mxCell>
        <mxCell id="vpJ0kvzyL-LAIBEurBCN-53" style="edgeStyle=orthogonalEdgeStyle;rounded=0;orthogonalLoop=1;jettySize=auto;html=1;entryX=-0.03;entryY=0.821;entryDx=0;entryDy=0;entryPerimeter=0;" edge="1" parent="1" source="vpJ0kvzyL-LAIBEurBCN-37" target="vpJ0kvzyL-LAIBEurBCN-46">
          <mxGeometry relative="1" as="geometry" />
        </mxCell>
        <mxCell id="vpJ0kvzyL-LAIBEurBCN-54" value="数据展示" style="edgeLabel;html=1;align=center;verticalAlign=middle;resizable=0;points=[];" vertex="1" connectable="0" parent="vpJ0kvzyL-LAIBEurBCN-53">
          <mxGeometry x="-0.0799" y="4" relative="1" as="geometry">
            <mxPoint as="offset" />
          </mxGeometry>
        </mxCell>
        <mxCell id="vpJ0kvzyL-LAIBEurBCN-37" value="获取所有服务的集合-&amp;gt;匹配不同的应用链路模版-&amp;gt;生成不同的流转数据" style="rounded=0;whiteSpace=wrap;html=1;" vertex="1" parent="1">
          <mxGeometry x="750" y="30" width="110" height="570" as="geometry" />
        </mxCell>
        <mxCell id="vpJ0kvzyL-LAIBEurBCN-38" value="" style="rounded=0;whiteSpace=wrap;html=1;" vertex="1" parent="1">
          <mxGeometry x="60" y="25" width="156" height="90" as="geometry" />
        </mxCell>
        <mxCell id="vpJ0kvzyL-LAIBEurBCN-40" style="edgeStyle=orthogonalEdgeStyle;rounded=0;orthogonalLoop=1;jettySize=auto;html=1;entryX=0.5;entryY=0;entryDx=0;entryDy=0;" edge="1" parent="1" source="vpJ0kvzyL-LAIBEurBCN-39" target="vpJ0kvzyL-LAIBEurBCN-15">
          <mxGeometry relative="1" as="geometry" />
        </mxCell>
        <mxCell id="vpJ0kvzyL-LAIBEurBCN-39" value="业务调用-&amp;gt;熔断降级-&amp;gt;GetWay-&amp;gt;服务RPC" style="rounded=1;whiteSpace=wrap;html=1;" vertex="1" parent="1">
          <mxGeometry x="78" y="40" width="120" height="60" as="geometry" />
        </mxCell>
        <mxCell id="vpJ0kvzyL-LAIBEurBCN-41" value="服务C" style="text;html=1;align=center;verticalAlign=middle;resizable=0;points=[];autosize=1;strokeColor=none;fillColor=none;" vertex="1" parent="1">
          <mxGeometry x="55" y="10" width="50" height="20" as="geometry" />
        </mxCell>
        <mxCell id="vpJ0kvzyL-LAIBEurBCN-45" value="类流程引擎" style="text;html=1;align=center;verticalAlign=middle;resizable=0;points=[];autosize=1;strokeColor=none;fillColor=none;" vertex="1" parent="1">
          <mxGeometry x="750" width="80" height="20" as="geometry" />
        </mxCell>
        <mxCell id="vpJ0kvzyL-LAIBEurBCN-51" style="edgeStyle=orthogonalEdgeStyle;rounded=0;orthogonalLoop=1;jettySize=auto;html=1;entryX=1;entryY=0.25;entryDx=0;entryDy=0;" edge="1" parent="1" source="vpJ0kvzyL-LAIBEurBCN-46" target="vpJ0kvzyL-LAIBEurBCN-37">
          <mxGeometry relative="1" as="geometry">
            <mxPoint x="880" y="200" as="targetPoint" />
          </mxGeometry>
        </mxCell>
        <mxCell id="vpJ0kvzyL-LAIBEurBCN-52" value="推送链路模版" style="edgeLabel;html=1;align=center;verticalAlign=middle;resizable=0;points=[];" vertex="1" connectable="0" parent="vpJ0kvzyL-LAIBEurBCN-51">
          <mxGeometry x="0.1233" y="3" relative="1" as="geometry">
            <mxPoint x="1" as="offset" />
          </mxGeometry>
        </mxCell>
        <mxCell id="vpJ0kvzyL-LAIBEurBCN-46" value="工作台" style="rounded=0;whiteSpace=wrap;html=1;" vertex="1" parent="1">
          <mxGeometry x="1040" y="30" width="100" height="290" as="geometry" />
        </mxCell>
        <mxCell id="vpJ0kvzyL-LAIBEurBCN-56" style="edgeStyle=orthogonalEdgeStyle;rounded=0;orthogonalLoop=1;jettySize=auto;html=1;" edge="1" parent="1" source="vpJ0kvzyL-LAIBEurBCN-55" target="vpJ0kvzyL-LAIBEurBCN-57">
          <mxGeometry relative="1" as="geometry">
            <mxPoint x="20" y="230" as="targetPoint" />
          </mxGeometry>
        </mxCell>
        <mxCell id="vpJ0kvzyL-LAIBEurBCN-55" value="公司容器云/配置中心" style="rounded=0;whiteSpace=wrap;html=1;" vertex="1" parent="1">
          <mxGeometry x="-200" y="110" width="110" height="410" as="geometry" />
        </mxCell>
      </root>
    </mxGraphModel>
  </diagram>
</mxfile>
